# This file uses centimeters as units for non-parametric coordinates.

mtllib Level2CurvyGate.mtl
g default
v -95.156081 6.161654 32.349124
v -94.553968 6.161654 32.129629
v -93.951855 6.161654 31.910134
v -93.349742 6.161654 31.690639
v -92.747629 6.161654 31.471144
v -92.145516 6.161654 31.251649
v -91.543403 6.161654 31.032154
v -95.156081 5.448310 32.349124
v -94.553968 5.448310 32.129629
v -93.951855 5.448310 31.910134
v -93.349742 5.448310 31.690639
v -92.747629 5.448310 31.471144
v -92.145516 5.448310 31.251649
v -91.543403 5.448310 31.032154
v -95.156081 4.734966 32.349124
v -94.553968 4.734966 32.129629
v -93.951855 4.734966 31.910134
v -93.349742 4.734966 31.690639
v -92.747629 4.734966 31.471144
v -92.145516 4.734966 31.251649
v -91.543403 4.734966 31.032154
v -95.758194 4.021621 32.568619
v -95.156081 4.021621 32.349124
v -94.553968 4.021621 32.129629
v -93.951855 4.021621 31.910134
v -93.349742 4.021621 31.690639
v -92.747629 4.021621 31.471144
v -92.145516 4.021621 31.251649
v -91.543403 4.021621 31.032154
v -90.941290 4.021621 30.812659
v -90.339177 4.021621 30.593164
v -89.737064 4.021621 30.373669
v -95.758194 3.308277 32.568619
v -95.156081 3.308277 32.349124
v -94.553968 3.308277 32.129629
v -93.951855 3.308277 31.910134
v -93.349742 3.308277 31.690639
v -92.747629 3.308277 31.471144
v -92.145516 3.308277 31.251649
v -91.543403 3.308277 31.032154
v -90.941290 3.308277 30.812659
v -90.339177 3.308277 30.593164
v -89.737064 3.308277 30.373669
v -95.758194 2.594933 32.568619
v -95.156081 2.594933 32.349124
v -94.553968 2.594933 32.129629
v -93.951855 2.594933 31.910134
v -93.349742 2.594933 31.690639
v -92.747629 2.594933 31.471144
v -92.145516 2.594933 31.251649
v -91.543403 2.594933 31.032154
v -90.941290 2.594933 30.812659
v -90.339177 2.594933 30.593164
v -89.737064 2.594933 30.373669
v -95.758194 1.881588 32.568619
v -95.156081 1.881588 32.349124
v -94.553968 1.881588 32.129629
v -93.951855 1.881588 31.910134
v -93.349742 1.881588 31.690639
v -92.747629 1.881588 31.471144
v -92.145516 1.881588 31.251649
v -91.543403 1.881588 31.032154
v -90.941290 1.881588 30.812659
v -90.339177 1.881588 30.593164
v -89.737064 1.881588 30.373669
v -98.146692 1.168244 33.439325
v -97.066879 1.168244 33.045689
v -95.987067 1.168244 32.652053
v -94.907254 1.168244 32.258417
v -93.827441 1.168244 31.864780
v -92.747629 1.168244 31.471144
v -91.667816 1.168244 31.077508
v -90.588004 1.168244 30.683872
v -89.508191 1.168244 30.290235
v -88.428378 1.168244 29.896599
v -87.348566 1.168244 29.502963
v -98.146692 0.454900 33.439325
v -97.066879 0.454900 33.045689
v -95.987067 0.454900 32.652053
v -94.907254 0.454900 32.258417
v -93.827441 0.454900 31.864780
v -92.747629 0.454900 31.471144
v -91.667816 0.454900 31.077508
v -90.588004 0.454900 30.683872
v -89.508191 0.454900 30.290235
v -88.428378 0.454900 29.896599
v -87.348566 0.454900 29.502963
v -98.146692 -0.258445 33.439325
v -97.066879 -0.258445 33.045689
v -95.987067 -0.258445 32.652053
v -94.907254 -0.258445 32.258417
v -93.827441 -0.258445 31.864780
v -92.747629 -0.258445 31.471144
v -91.667816 -0.258445 31.077508
v -90.588004 -0.258445 30.683872
v -89.508191 -0.258445 30.290235
v -88.428378 -0.258445 29.896599
v -87.348566 -0.258445 29.502963
v -98.146692 -0.971789 33.439325
v -97.066879 -0.971789 33.045689
v -95.987067 -0.971789 32.652053
v -94.907254 -0.971789 32.258417
v -93.827441 -0.971789 31.864780
v -92.747629 -0.971789 31.471144
v -91.667816 -0.971789 31.077508
v -90.588004 -0.971789 30.683872
v -89.508191 -0.971789 30.290235
v -88.428378 -0.971789 29.896599
v -87.348566 -0.971789 29.502963
vt 0.100000 0.000000
vt 0.200000 0.000000
vt 0.300000 0.000000
vt 0.400000 0.000000
vt 0.500000 0.000000
vt 0.600000 0.000000
vt 0.700000 0.000000
vt 0.100000 0.100000
vt 0.200000 0.100000
vt 0.300000 0.100000
vt 0.400000 0.100000
vt 0.500000 0.100000
vt 0.600000 0.100000
vt 0.700000 0.100000
vt 0.100000 0.200000
vt 0.200000 0.200000
vt 0.300000 0.200000
vt 0.400000 0.200000
vt 0.500000 0.200000
vt 0.600000 0.200000
vt 0.700000 0.200000
vt 0.000000 0.300000
vt 0.100000 0.300000
vt 0.200000 0.300000
vt 0.300000 0.300000
vt 0.400000 0.300000
vt 0.500000 0.300000
vt 0.600000 0.300000
vt 0.700000 0.300000
vt 0.800000 0.300000
vt 0.900000 0.300000
vt 1.000000 0.300000
vt 0.000000 0.400000
vt 0.100000 0.400000
vt 0.200000 0.400000
vt 0.300000 0.400000
vt 0.400000 0.400000
vt 0.500000 0.400000
vt 0.600000 0.400000
vt 0.700000 0.400000
vt 0.800000 0.400000
vt 0.900000 0.400000
vt 1.000000 0.400000
vt 0.000000 0.500000
vt 0.100000 0.500000
vt 0.200000 0.500000
vt 0.300000 0.500000
vt 0.400000 0.500000
vt 0.500000 0.500000
vt 0.600000 0.500000
vt 0.700000 0.500000
vt 0.800000 0.500000
vt 0.900000 0.500000
vt 1.000000 0.500000
vt 0.000000 0.600000
vt 0.100000 0.600000
vt 0.200000 0.600000
vt 0.300000 0.600000
vt 0.400000 0.600000
vt 0.500000 0.600000
vt 0.600000 0.600000
vt 0.700000 0.600000
vt 0.800000 0.600000
vt 0.900000 0.600000
vt 1.000000 0.600000
vt 0.000000 0.700000
vt 0.100000 0.700000
vt 0.200000 0.700000
vt 0.300000 0.700000
vt 0.400000 0.700000
vt 0.500000 0.700000
vt 0.600000 0.700000
vt 0.700000 0.700000
vt 0.800000 0.700000
vt 0.900000 0.700000
vt 1.000000 0.700000
vt 0.000000 0.800000
vt 0.100000 0.800000
vt 0.200000 0.800000
vt 0.300000 0.800000
vt 0.400000 0.800000
vt 0.500000 0.800000
vt 0.600000 0.800000
vt 0.700000 0.800000
vt 0.800000 0.800000
vt 0.900000 0.800000
vt 1.000000 0.800000
vt 0.000000 0.900000
vt 0.100000 0.900000
vt 0.200000 0.900000
vt 0.300000 0.900000
vt 0.400000 0.900000
vt 0.500000 0.900000
vt 0.600000 0.900000
vt 0.700000 0.900000
vt 0.800000 0.900000
vt 0.900000 0.900000
vt 1.000000 0.900000
vt 0.000000 1.000000
vt 0.100000 1.000000
vt 0.200000 1.000000
vt 0.300000 1.000000
vt 0.400000 1.000000
vt 0.500000 1.000000
vt 0.600000 1.000000
vt 0.700000 1.000000
vt 0.800000 1.000000
vt 0.900000 1.000000
vt 1.000000 1.000000
vn -0.342494 0.000000 -0.939520
vn -0.342494 0.000000 -0.939520
vn -0.342494 0.000000 -0.939520
vn -0.342494 0.000000 -0.939520
vn -0.342494 0.000000 -0.939520
vn -0.342494 0.000000 -0.939520
vn -0.342494 0.000000 -0.939520
vn -0.342494 0.000000 -0.939520
vn -0.342494 0.000000 -0.939520
vn -0.342494 0.000000 -0.939520
vn -0.342494 0.000000 -0.939520
vn -0.342494 0.000000 -0.939520
vn -0.342494 0.000000 -0.939520
vn -0.342494 0.000000 -0.939520
vn -0.342494 0.000000 -0.939520
vn -0.342494 0.000000 -0.939520
vn -0.342494 0.000000 -0.939520
vn -0.342494 0.000000 -0.939520
vn -0.342494 0.000000 -0.939520
vn -0.342494 0.000000 -0.939520
vn -0.342494 0.000000 -0.939520
vn -0.342494 0.000000 -0.939520
vn -0.342494 0.000000 -0.939520
vn -0.342494 0.000000 -0.939520
vn -0.342494 0.000000 -0.939520
vn -0.342494 0.000000 -0.939520
vn -0.342494 0.000000 -0.939520
vn -0.342494 0.000000 -0.939520
vn -0.342494 0.000000 -0.939520
vn -0.342494 0.000000 -0.939520
vn -0.342494 0.000000 -0.939520
vn -0.342494 0.000000 -0.939520
vn -0.342494 0.000000 -0.939520
vn -0.342494 0.000000 -0.939520
vn -0.342494 0.000000 -0.939520
vn -0.342494 0.000000 -0.939520
vn -0.342494 0.000000 -0.939520
vn -0.342494 0.000000 -0.939520
vn -0.342494 0.000000 -0.939520
vn -0.342494 0.000000 -0.939520
vn -0.342494 0.000000 -0.939520
vn -0.342494 0.000000 -0.939520
vn -0.342494 0.000000 -0.939520
vn -0.342494 0.000000 -0.939520
vn -0.342494 0.000000 -0.939520
vn -0.342494 0.000000 -0.939520
vn -0.342494 0.000000 -0.939520
vn -0.342494 0.000000 -0.939520
vn -0.342494 0.000000 -0.939520
vn -0.342494 0.000000 -0.939520
vn -0.342494 0.000000 -0.939520
vn -0.342494 0.000000 -0.939520
vn -0.342494 0.000000 -0.939520
vn -0.342494 0.000000 -0.939520
vn -0.342494 0.000000 -0.939520
vn -0.342494 0.000000 -0.939520
vn -0.342494 0.000000 -0.939520
vn -0.342494 0.000000 -0.939520
vn -0.342494 0.000000 -0.939520
vn -0.342494 0.000000 -0.939520
vn -0.342494 0.000000 -0.939520
vn -0.342494 0.000000 -0.939520
vn -0.342494 0.000000 -0.939520
vn -0.342494 0.000000 -0.939520
vn -0.342494 0.000000 -0.939520
vn -0.342494 0.000000 -0.939520
vn -0.342494 0.000000 -0.939520
vn -0.342494 0.000000 -0.939520
vn -0.342494 0.000000 -0.939520
vn -0.342494 0.000000 -0.939520
vn -0.342494 0.000000 -0.939520
vn -0.342494 0.000000 -0.939520
vn -0.342494 0.000000 -0.939520
vn -0.342494 0.000000 -0.939520
vn -0.342494 0.000000 -0.939520
vn -0.342494 0.000000 -0.939520
vn -0.342494 0.000000 -0.939520
vn -0.342494 0.000000 -0.939520
vn -0.342494 0.000000 -0.939520
vn -0.342494 0.000000 -0.939520
vn -0.342494 0.000000 -0.939520
vn -0.342494 0.000000 -0.939520
vn -0.342494 0.000000 -0.939520
vn -0.342494 0.000000 -0.939520
vn -0.342494 0.000000 -0.939520
vn -0.342494 0.000000 -0.939520
vn -0.342494 0.000000 -0.939520
vn -0.342494 0.000000 -0.939520
vn -0.342494 0.000000 -0.939520
vn -0.342494 0.000000 -0.939520
vn -0.342494 0.000000 -0.939520
vn -0.342494 0.000000 -0.939520
vn -0.342494 0.000000 -0.939520
vn -0.342494 0.000000 -0.939520
vn -0.342494 0.000000 -0.939520
vn -0.342494 0.000000 -0.939520
vn -0.342494 0.000000 -0.939520
vn -0.342494 0.000000 -0.939520
vn -0.342494 0.000000 -0.939520
vn -0.342494 0.000000 -0.939520
vn -0.342494 0.000000 -0.939520
vn -0.342494 0.000000 -0.939520
vn -0.342494 0.000000 -0.939520
vn -0.342494 0.000000 -0.939520
vn -0.342494 0.000000 -0.939520
vn -0.342494 0.000000 -0.939520
vn -0.342494 0.000000 -0.939520
vn -0.342494 0.000000 -0.939520
vn -0.342494 0.000000 -0.939520
s 1
g pPlane1
usemtl initialShadingGroup
f 1/1/1 2/2/2 9/9/3 8/8/4
f 2/2/2 3/3/5 10/10/6 9/9/3
f 3/3/5 4/4/7 11/11/8 10/10/6
f 4/4/7 5/5/9 12/12/10 11/11/8
f 5/5/9 6/6/11 13/13/12 12/12/10
f 6/6/11 7/7/13 14/14/14 13/13/12
f 8/8/4 9/9/3 16/16/15 15/15/16
f 9/9/3 10/10/6 17/17/17 16/16/15
f 10/10/6 11/11/8 18/18/18 17/17/17
f 11/11/8 12/12/10 19/19/19 18/18/18
f 12/12/10 13/13/12 20/20/20 19/19/19
f 13/13/12 14/14/14 21/21/21 20/20/20
f 15/15/16 16/16/15 24/24/22 23/23/23
f 16/16/15 17/17/17 25/25/24 24/24/22
f 17/17/17 18/18/18 26/26/25 25/25/24
f 18/18/18 19/19/19 27/27/26 26/26/25
f 19/19/19 20/20/20 28/28/27 27/27/26
f 20/20/20 21/21/21 29/29/28 28/28/27
f 22/22/29 23/23/23 34/34/30 33/33/31
f 23/23/23 24/24/22 35/35/32 34/34/30
f 24/24/22 25/25/24 36/36/33 35/35/32
f 25/25/24 26/26/25 37/37/34 36/36/33
f 26/26/25 27/27/26 38/38/35 37/37/34
f 27/27/26 28/28/27 39/39/36 38/38/35
f 28/28/27 29/29/28 40/40/37 39/39/36
f 29/29/28 30/30/38 41/41/39 40/40/37
f 30/30/38 31/31/40 42/42/41 41/41/39
f 31/31/40 32/32/42 43/43/43 42/42/41
f 33/33/31 34/34/30 45/45/44 44/44/45
f 34/34/30 35/35/32 46/46/46 45/45/44
f 35/35/32 36/36/33 47/47/47 46/46/46
f 36/36/33 37/37/34 48/48/48 47/47/47
f 37/37/34 38/38/35 49/49/49 48/48/48
f 38/38/35 39/39/36 50/50/50 49/49/49
f 39/39/36 40/40/37 51/51/51 50/50/50
f 40/40/37 41/41/39 52/52/52 51/51/51
f 41/41/39 42/42/41 53/53/53 52/52/52
f 42/42/41 43/43/43 54/54/54 53/53/53
f 44/44/45 45/45/44 56/56/55 55/55/56
f 45/45/44 46/46/46 57/57/57 56/56/55
f 46/46/46 47/47/47 58/58/58 57/57/57
f 47/47/47 48/48/48 59/59/59 58/58/58
f 48/48/48 49/49/49 60/60/60 59/59/59
f 49/49/49 50/50/50 61/61/61 60/60/60
f 50/50/50 51/51/51 62/62/62 61/61/61
f 51/51/51 52/52/52 63/63/63 62/62/62
f 52/52/52 53/53/53 64/64/64 63/63/63
f 53/53/53 54/54/54 65/65/65 64/64/64
f 55/55/56 56/56/55 67/67/66 66/66/67
f 56/56/55 57/57/57 68/68/68 67/67/66
f 57/57/57 58/58/58 69/69/69 68/68/68
f 58/58/58 59/59/59 70/70/70 69/69/69
f 59/59/59 60/60/60 71/71/71 70/70/70
f 60/60/60 61/61/61 72/72/72 71/71/71
f 61/61/61 62/62/62 73/73/73 72/72/72
f 62/62/62 63/63/63 74/74/74 73/73/73
f 63/63/63 64/64/64 75/75/75 74/74/74
f 64/64/64 65/65/65 76/76/76 75/75/75
f 66/66/67 67/67/66 78/78/77 77/77/78
f 67/67/66 68/68/68 79/79/79 78/78/77
f 68/68/68 69/69/69 80/80/80 79/79/79
f 69/69/69 70/70/70 81/81/81 80/80/80
f 70/70/70 71/71/71 82/82/82 81/81/81
f 71/71/71 72/72/72 83/83/83 82/82/82
f 72/72/72 73/73/73 84/84/84 83/83/83
f 73/73/73 74/74/74 85/85/85 84/84/84
f 74/74/74 75/75/75 86/86/86 85/85/85
f 75/75/75 76/76/76 87/87/87 86/86/86
f 77/77/78 78/78/77 89/89/88 88/88/89
f 78/78/77 79/79/79 90/90/90 89/89/88
f 79/79/79 80/80/80 91/91/91 90/90/90
f 80/80/80 81/81/81 92/92/92 91/91/91
f 81/81/81 82/82/82 93/93/93 92/92/92
f 82/82/82 83/83/83 94/94/94 93/93/93
f 83/83/83 84/84/84 95/95/95 94/94/94
f 84/84/84 85/85/85 96/96/96 95/95/95
f 85/85/85 86/86/86 97/97/97 96/96/96
f 86/86/86 87/87/87 98/98/98 97/97/97
f 88/88/89 89/89/88 100/100/99 99/99/100
f 89/89/88 90/90/90 101/101/101 100/100/99
f 90/90/90 91/91/91 102/102/102 101/101/101
f 91/91/91 92/92/92 103/103/103 102/102/102
f 92/92/92 93/93/93 104/104/104 103/103/103
f 93/93/93 94/94/94 105/105/105 104/104/104
f 94/94/94 95/95/95 106/106/106 105/105/105
f 95/95/95 96/96/96 107/107/107 106/106/106
f 96/96/96 97/97/97 108/108/108 107/107/107
f 97/97/97 98/98/98 109/109/109 108/108/108
