# This file uses centimeters as units for non-parametric coordinates.

mtllib Level2CurvyGate.mtl
g default
v -1.954987 3.742233 1.019352
v -1.352867 3.742233 0.799854
v -0.750755 3.742233 0.580360
v -0.148643 3.742233 0.360867
v 0.453468 3.742233 0.141371
v 1.055580 3.742233 -0.078125
v 1.657692 3.742233 -0.297619
v -1.954987 3.028889 1.019352
v -1.352867 3.028889 0.799854
v -0.750755 3.028889 0.580360
v -0.148643 3.028889 0.360867
v 0.453468 3.028889 0.141371
v 1.055580 3.028889 -0.078125
v 1.657692 3.028889 -0.297619
v -1.954987 2.315544 1.019352
v -1.352867 2.315544 0.799854
v -0.750755 2.315544 0.580360
v -0.148643 2.315544 0.360867
v 0.453468 2.315544 0.141371
v 1.055580 2.315544 -0.078125
v 1.657692 2.315544 -0.297619
v -2.557098 1.602201 1.238846
v -1.954987 1.602201 1.019352
v -1.352867 1.602201 0.799854
v -0.750755 1.602201 0.580360
v -0.148643 1.602201 0.360867
v 0.453468 1.602201 0.141371
v 1.055580 1.602201 -0.078125
v 1.657692 1.602201 -0.297619
v 2.259804 1.602201 -0.517115
v 2.861923 1.602201 -0.736610
v 3.464035 1.602201 -0.956104
v -2.557098 0.888856 1.238846
v -1.954987 0.888856 1.019352
v -1.352867 0.888856 0.799854
v -0.750755 0.888856 0.580360
v -0.148643 0.888856 0.360867
v 0.453468 0.888856 0.141371
v 1.055580 0.888856 -0.078125
v 1.657692 0.888856 -0.297619
v 2.259804 0.888856 -0.517115
v 2.861923 0.888856 -0.736610
v 3.464035 0.888856 -0.956104
v -2.557098 0.175512 1.238846
v -1.954987 0.175512 1.019352
v -1.352867 0.175512 0.799854
v -0.750755 0.175512 0.580360
v -0.148643 0.175512 0.360867
v 0.453468 0.175512 0.141371
v 1.055580 0.175512 -0.078125
v 1.657692 0.175512 -0.297619
v 2.259804 0.175512 -0.517115
v 2.861923 0.175512 -0.736610
v 3.464035 0.175512 -0.956104
v -2.557098 -0.537833 1.238846
v -1.954987 -0.537833 1.019352
v -1.352867 -0.537833 0.799854
v -0.750755 -0.537833 0.580360
v -0.148643 -0.537833 0.360867
v 0.453468 -0.537833 0.141371
v 1.055580 -0.537833 -0.078125
v 1.657692 -0.537833 -0.297619
v 2.259804 -0.537833 -0.517115
v 2.861923 -0.537833 -0.736610
v 3.464035 -0.537833 -0.956104
v -4.945595 -1.251177 2.109550
v -3.865784 -1.251177 1.715916
v -2.785973 -1.251177 1.322281
v -1.706154 -1.251177 0.928642
v -0.626343 -1.251177 0.535007
v 0.453468 -1.251177 0.141371
v 1.533279 -1.251177 -0.252266
v 2.613091 -1.251177 -0.645903
v 3.692909 -1.251177 -1.039537
v 4.772720 -1.251177 -1.433174
v 5.852531 -1.251177 -1.826811
v -4.945595 -1.964521 2.109550
v -3.865784 -1.964521 1.715916
v -2.785973 -1.964521 1.322281
v -1.706154 -1.964521 0.928642
v -0.626343 -1.964521 0.535007
v 0.453468 -1.964521 0.141371
v 1.533279 -1.964521 -0.252266
v 2.613091 -1.964521 -0.645903
v 3.692909 -1.964521 -1.039537
v 4.772720 -1.964521 -1.433174
v 5.852531 -1.964521 -1.826811
v -4.945595 -2.677866 2.109550
v -3.865784 -2.677866 1.715916
v -2.785973 -2.677866 1.322281
v -1.706154 -2.677866 0.928642
v -0.626343 -2.677866 0.535007
v 0.453468 -2.677866 0.141371
v 1.533279 -2.677866 -0.252266
v 2.613091 -2.677866 -0.645903
v 3.692909 -2.677866 -1.039537
v 4.772720 -2.677866 -1.433174
v 5.852531 -2.677866 -1.826811
v -4.945595 -3.391210 2.109550
v -3.865784 -3.391210 1.715916
v -2.785973 -3.391210 1.322281
v -1.706154 -3.391210 0.928642
v -0.626343 -3.391210 0.535007
v 0.453468 -3.391210 0.141371
v 1.533279 -3.391210 -0.252266
v 2.613091 -3.391210 -0.645903
v 3.692909 -3.391210 -1.039537
v 4.772720 -3.391210 -1.433174
v 5.852531 -3.391210 -1.826811
vt 0.100000 0.000000
vt 0.200000 0.000000
vt 0.200000 0.100000
vt 0.100000 0.100000
vt 0.300000 0.000000
vt 0.300000 0.100000
vt 0.400000 0.000000
vt 0.400000 0.100000
vt 0.500000 0.000000
vt 0.500000 0.100000
vt 0.600000 0.000000
vt 0.600000 0.100000
vt 0.700000 0.000000
vt 0.700000 0.100000
vt 0.200000 0.200000
vt 0.100000 0.200000
vt 0.300000 0.200000
vt 0.400000 0.200000
vt 0.500000 0.200000
vt 0.600000 0.200000
vt 0.700000 0.200000
vt 0.200000 0.300000
vt 0.100000 0.300000
vt 0.300000 0.300000
vt 0.400000 0.300000
vt 0.500000 0.300000
vt 0.600000 0.300000
vt 0.700000 0.300000
vt 0.000000 0.300000
vt 0.100000 0.400000
vt 0.000000 0.400000
vt 0.200000 0.400000
vt 0.300000 0.400000
vt 0.400000 0.400000
vt 0.500000 0.400000
vt 0.600000 0.400000
vt 0.700000 0.400000
vt 0.800000 0.300000
vt 0.800000 0.400000
vt 0.900000 0.300000
vt 0.900000 0.400000
vt 1.000000 0.300000
vt 1.000000 0.400000
vt 0.100000 0.500000
vt 0.000000 0.500000
vt 0.200000 0.500000
vt 0.300000 0.500000
vt 0.400000 0.500000
vt 0.500000 0.500000
vt 0.600000 0.500000
vt 0.700000 0.500000
vt 0.800000 0.500000
vt 0.900000 0.500000
vt 1.000000 0.500000
vt 0.100000 0.600000
vt 0.000000 0.600000
vt 0.200000 0.600000
vt 0.300000 0.600000
vt 0.400000 0.600000
vt 0.500000 0.600000
vt 0.600000 0.600000
vt 0.700000 0.600000
vt 0.800000 0.600000
vt 0.900000 0.600000
vt 1.000000 0.600000
vt 0.100000 0.700000
vt 0.000000 0.700000
vt 0.200000 0.700000
vt 0.300000 0.700000
vt 0.400000 0.700000
vt 0.500000 0.700000
vt 0.600000 0.700000
vt 0.700000 0.700000
vt 0.800000 0.700000
vt 0.900000 0.700000
vt 1.000000 0.700000
vt 0.100000 0.800000
vt 0.000000 0.800000
vt 0.200000 0.800000
vt 0.300000 0.800000
vt 0.400000 0.800000
vt 0.500000 0.800000
vt 0.600000 0.800000
vt 0.700000 0.800000
vt 0.800000 0.800000
vt 0.900000 0.800000
vt 1.000000 0.800000
vt 0.100000 0.900000
vt 0.000000 0.900000
vt 0.200000 0.900000
vt 0.300000 0.900000
vt 0.400000 0.900000
vt 0.500000 0.900000
vt 0.600000 0.900000
vt 0.700000 0.900000
vt 0.800000 0.900000
vt 0.900000 0.900000
vt 1.000000 0.900000
vt 0.100000 1.000000
vt 0.000000 1.000000
vt 0.200000 1.000000
vt 0.300000 1.000000
vt 0.400000 1.000000
vt 0.500000 1.000000
vt 0.600000 1.000000
vt 0.700000 1.000000
vt 0.800000 1.000000
vt 0.900000 1.000000
vt 1.000000 1.000000
vn -0.342496 0.000000 -0.939519
vn -0.342494 0.000000 -0.939520
vn -0.342494 0.000000 -0.939520
vn -0.342495 0.000000 -0.939520
vn -0.342494 0.000000 -0.939520
vn -0.342492 0.000000 -0.939521
vn -0.342492 0.000000 -0.939521
vn -0.342494 0.000000 -0.939520
vn -0.342492 0.000000 -0.939521
vn -0.342494 0.000000 -0.939520
vn -0.342494 0.000000 -0.939520
vn -0.342492 0.000000 -0.939521
vn -0.342494 0.000000 -0.939520
vn -0.342496 0.000000 -0.939519
vn -0.342496 0.000000 -0.939519
vn -0.342494 0.000000 -0.939520
vn -0.342496 0.000000 -0.939519
vn -0.342494 0.000000 -0.939520
vn -0.342494 0.000000 -0.939520
vn -0.342496 0.000000 -0.939519
vn -0.342494 0.000000 -0.939520
vn -0.342492 0.000000 -0.939521
vn -0.342492 0.000000 -0.939521
vn -0.342494 0.000000 -0.939520
vn -0.342495 0.000000 -0.939520
vn -0.342494 0.000000 -0.939520
vn -0.342494 0.000000 -0.939520
vn -0.342495 0.000000 -0.939520
vn -0.342494 0.000000 -0.939520
vn -0.342492 0.000000 -0.939521
vn -0.342492 0.000000 -0.939521
vn -0.342494 0.000000 -0.939520
vn -0.342492 0.000000 -0.939521
vn -0.342494 0.000000 -0.939520
vn -0.342494 0.000000 -0.939520
vn -0.342492 0.000000 -0.939521
vn -0.342494 0.000000 -0.939520
vn -0.342496 0.000000 -0.939519
vn -0.342496 0.000000 -0.939519
vn -0.342494 0.000000 -0.939520
vn -0.342496 0.000000 -0.939519
vn -0.342494 0.000000 -0.939520
vn -0.342494 0.000000 -0.939520
vn -0.342496 0.000000 -0.939519
vn -0.342494 0.000000 -0.939520
vn -0.342492 0.000000 -0.939521
vn -0.342492 0.000000 -0.939521
vn -0.342494 0.000000 -0.939520
vn -0.342495 0.000000 -0.939520
vn -0.342494 0.000000 -0.939520
vn -0.342494 0.000000 -0.939520
vn -0.342494 0.000000 -0.939520
vn -0.342494 0.000000 -0.939520
vn -0.342492 0.000000 -0.939521
vn -0.342492 0.000000 -0.939521
vn -0.342494 0.000000 -0.939520
vn -0.342492 0.000000 -0.939521
vn -0.342494 0.000000 -0.939520
vn -0.342494 0.000000 -0.939520
vn -0.342492 0.000000 -0.939521
vn -0.342494 0.000000 -0.939520
vn -0.342496 0.000000 -0.939519
vn -0.342496 0.000000 -0.939519
vn -0.342494 0.000000 -0.939520
vn -0.342496 0.000000 -0.939519
vn -0.342494 0.000000 -0.939520
vn -0.342494 0.000000 -0.939520
vn -0.342496 0.000000 -0.939519
vn -0.342494 0.000000 -0.939520
vn -0.342492 0.000000 -0.939521
vn -0.342493 0.000000 -0.939520
vn -0.342494 0.000000 -0.939520
vn -0.342492 0.000000 -0.939521
vn -0.342494 0.000000 -0.939520
vn -0.342494 0.000000 -0.939520
vn -0.342492 0.000000 -0.939521
vn -0.342494 0.000000 -0.939520
vn -0.342494 0.000000 -0.939520
vn -0.342494 0.000000 -0.939520
vn -0.342494 0.000000 -0.939520
vn -0.342494 0.000000 -0.939520
vn -0.342492 0.000000 -0.939521
vn -0.342492 0.000000 -0.939521
vn -0.342494 0.000000 -0.939520
vn -0.342492 0.000000 -0.939521
vn -0.342494 0.000000 -0.939520
vn -0.342494 0.000000 -0.939520
vn -0.342492 0.000000 -0.939521
vn -0.342494 0.000000 -0.939520
vn -0.342496 0.000000 -0.939519
vn -0.342496 0.000000 -0.939519
vn -0.342494 0.000000 -0.939520
vn -0.342496 0.000000 -0.939519
vn -0.342494 0.000000 -0.939520
vn -0.342494 0.000000 -0.939520
vn -0.342496 0.000000 -0.939519
vn -0.342494 0.000000 -0.939520
vn -0.342493 0.000000 -0.939520
vn -0.342494 0.000000 -0.939520
vn -0.342494 0.000000 -0.939520
vn -0.342493 0.000000 -0.939520
vn -0.342494 0.000000 -0.939520
vn -0.342494 0.000000 -0.939520
vn -0.342494 0.000000 -0.939520
vn -0.342494 0.000000 -0.939520
vn -0.342492 0.000000 -0.939521
vn -0.342492 0.000000 -0.939521
vn -0.342494 0.000000 -0.939520
vn -0.342492 0.000000 -0.939521
vn -0.342492 0.000000 -0.939521
vn -0.342492 0.000000 -0.939521
vn -0.342492 0.000000 -0.939521
vn -0.342492 0.000000 -0.939521
vn -0.342494 0.000000 -0.939520
vn -0.342494 0.000000 -0.939520
vn -0.342492 0.000000 -0.939521
vn -0.342494 0.000000 -0.939520
vn -0.342494 0.000000 -0.939520
vn -0.342494 0.000000 -0.939520
vn -0.342494 0.000000 -0.939520
vn -0.342494 0.000000 -0.939520
vn -0.342492 0.000000 -0.939521
vn -0.342492 0.000000 -0.939521
vn -0.342494 0.000000 -0.939520
vn -0.342492 0.000000 -0.939521
vn -0.342494 0.000000 -0.939520
vn -0.342494 0.000000 -0.939520
vn -0.342492 0.000000 -0.939521
vn -0.342494 0.000000 -0.939520
vn -0.342496 0.000000 -0.939519
vn -0.342496 0.000000 -0.939519
vn -0.342494 0.000000 -0.939520
vn -0.342496 0.000000 -0.939519
vn -0.342494 0.000000 -0.939520
vn -0.342494 0.000000 -0.939520
vn -0.342496 0.000000 -0.939519
vn -0.342494 0.000000 -0.939520
vn -0.342494 0.000000 -0.939520
vn -0.342494 0.000000 -0.939520
vn -0.342494 0.000000 -0.939520
vn -0.342494 0.000000 -0.939520
vn -0.342494 0.000000 -0.939520
vn -0.342494 0.000000 -0.939520
vn -0.342494 0.000000 -0.939520
vn -0.342494 0.000000 -0.939520
vn -0.342492 0.000000 -0.939521
vn -0.342493 0.000000 -0.939520
vn -0.342494 0.000000 -0.939520
vn -0.342492 0.000000 -0.939521
vn -0.342492 0.000000 -0.939521
vn -0.342494 0.000000 -0.939520
vn -0.342493 0.000000 -0.939520
vn -0.342492 0.000000 -0.939521
vn -0.342494 0.000000 -0.939520
vn -0.342494 0.000000 -0.939520
vn -0.342492 0.000000 -0.939521
vn -0.342494 0.000000 -0.939520
vn -0.342494 0.000000 -0.939520
vn -0.342494 0.000000 -0.939520
vn -0.342494 0.000000 -0.939520
vn -0.342494 0.000000 -0.939520
vn -0.342492 0.000000 -0.939521
vn -0.342492 -0.000001 -0.939521
vn -0.342494 0.000000 -0.939520
vn -0.342492 0.000000 -0.939521
vn -0.342494 0.000000 -0.939520
vn -0.342494 -0.000001 -0.939520
vn -0.342492 -0.000001 -0.939521
vn -0.342494 0.000000 -0.939520
vn -0.342496 0.000000 -0.939519
vn -0.342495 0.000001 -0.939520
vn -0.342494 -0.000001 -0.939520
vn -0.342496 0.000000 -0.939519
vn -0.342494 0.000000 -0.939520
vn -0.342494 0.000000 -0.939520
vn -0.342495 0.000001 -0.939520
vn -0.342494 0.000000 -0.939520
vn -0.342494 0.000000 -0.939520
vn -0.342494 0.000002 -0.939520
vn -0.342494 0.000000 -0.939520
vn -0.342494 0.000000 -0.939520
vn -0.342494 0.000000 -0.939520
vn -0.342494 0.000002 -0.939520
vn -0.342494 0.000002 -0.939520
vn -0.342494 0.000000 -0.939520
vn -0.342493 0.000000 -0.939520
vn -0.342493 0.000001 -0.939520
vn -0.342494 0.000002 -0.939520
vn -0.342493 0.000000 -0.939520
vn -0.342494 0.000000 -0.939520
vn -0.342494 0.000003 -0.939520
vn -0.342493 0.000001 -0.939520
vn -0.342492 0.000000 -0.939521
vn -0.342494 0.000000 -0.939520
vn -0.342493 0.000000 -0.939520
vn -0.342493 0.000000 -0.939520
vn -0.342494 0.000000 -0.939520
vn -0.342494 0.000000 -0.939520
vn -0.342494 0.000000 -0.939520
vn -0.342493 0.000000 -0.939520
vn -0.342494 0.000000 -0.939520
vn -0.342492 -0.000001 -0.939521
vn -0.342493 -0.000001 -0.939520
vn -0.342494 0.000000 -0.939520
vn -0.342492 -0.000001 -0.939521
vn -0.342494 -0.000001 -0.939520
vn -0.342494 -0.000001 -0.939520
vn -0.342493 -0.000001 -0.939520
vn -0.342494 -0.000001 -0.939520
vn -0.342495 0.000001 -0.939520
vn -0.342495 0.000001 -0.939520
vn -0.342494 -0.000001 -0.939520
vn -0.342495 0.000001 -0.939520
vn -0.342494 0.000000 -0.939520
vn -0.342494 0.000000 -0.939520
vn -0.342495 0.000001 -0.939520
vn -0.342494 0.000000 -0.939520
vn -0.342494 0.000002 -0.939520
vn -0.342493 0.000002 -0.939520
vn -0.342494 0.000000 -0.939520
vn -0.342494 0.000002 -0.939520
vn -0.342494 0.000002 -0.939520
vn -0.342494 0.000002 -0.939520
vn -0.342493 0.000002 -0.939520
vn -0.342494 0.000002 -0.939520
vn -0.342493 0.000001 -0.939520
vn -0.342494 0.000001 -0.939520
vn -0.342494 0.000002 -0.939520
vn -0.342493 0.000001 -0.939520
vn -0.342494 0.000003 -0.939520
vn -0.342493 0.000003 -0.939520
vn -0.342494 0.000001 -0.939520
vn -0.342493 0.000000 -0.939520
vn -0.342493 0.000000 -0.939520
vn -0.342493 0.000000 -0.939520
vn -0.342494 0.000000 -0.939520
vn -0.342493 0.000000 -0.939520
vn -0.342494 0.000000 -0.939520
vn -0.342493 0.000000 -0.939520
vn -0.342493 0.000000 -0.939520
vn -0.342494 0.000000 -0.939520
vn -0.342493 -0.000001 -0.939520
vn -0.342494 0.000000 -0.939520
vn -0.342493 0.000000 -0.939520
vn -0.342493 -0.000001 -0.939520
vn -0.342494 -0.000001 -0.939520
vn -0.342494 0.000000 -0.939520
vn -0.342494 0.000000 -0.939520
vn -0.342494 -0.000001 -0.939520
vn -0.342495 0.000001 -0.939520
vn -0.342494 0.000000 -0.939520
vn -0.342494 0.000000 -0.939520
vn -0.342495 0.000001 -0.939520
vn -0.342494 0.000000 -0.939520
vn -0.342495 0.000000 -0.939520
vn -0.342494 0.000000 -0.939520
vn -0.342494 0.000000 -0.939520
vn -0.342493 0.000002 -0.939520
vn -0.342492 0.000000 -0.939521
vn -0.342495 0.000000 -0.939520
vn -0.342493 0.000002 -0.939520
vn -0.342494 0.000002 -0.939520
vn -0.342493 0.000000 -0.939520
vn -0.342492 0.000000 -0.939521
vn -0.342494 0.000002 -0.939520
vn -0.342494 0.000001 -0.939520
vn -0.342495 0.000000 -0.939520
vn -0.342493 0.000000 -0.939520
vn -0.342494 0.000001 -0.939520
vn -0.342493 0.000003 -0.939520
vn -0.342494 0.000000 -0.939520
vn -0.342495 0.000000 -0.939520
vn -0.342494 0.000000 -0.939520
vn -0.342493 0.000000 -0.939520
vn -0.342493 0.000000 -0.939520
vn -0.342494 0.000000 -0.939520
vn -0.342493 0.000000 -0.939520
vn -0.342493 0.000000 -0.939520
vn -0.342493 0.000000 -0.939520
vn -0.342493 0.000000 -0.939520
vn -0.342493 0.000000 -0.939520
vn -0.342494 0.000000 -0.939520
vn -0.342494 0.000000 -0.939520
vn -0.342493 0.000000 -0.939520
vn -0.342494 0.000000 -0.939520
vn -0.342494 0.000000 -0.939520
vn -0.342494 0.000000 -0.939520
vn -0.342494 0.000000 -0.939520
vn -0.342494 0.000000 -0.939520
vn -0.342494 0.000000 -0.939520
vn -0.342494 0.000000 -0.939520
vn -0.342494 0.000000 -0.939520
vn -0.342494 0.000000 -0.939520
vn -0.342495 0.000000 -0.939520
vn -0.342495 0.000000 -0.939520
vn -0.342494 0.000000 -0.939520
vn -0.342495 0.000000 -0.939520
vn -0.342492 0.000000 -0.939521
vn -0.342493 0.000000 -0.939520
vn -0.342495 0.000000 -0.939520
vn -0.342492 0.000000 -0.939521
vn -0.342493 0.000000 -0.939520
vn -0.342492 0.000000 -0.939521
vn -0.342493 0.000000 -0.939520
vn -0.342493 0.000000 -0.939520
vn -0.342495 0.000000 -0.939520
vn -0.342495 0.000000 -0.939520
vn -0.342492 0.000000 -0.939521
vn -0.342495 0.000000 -0.939520
vn -0.342494 0.000000 -0.939520
vn -0.342495 0.000000 -0.939520
vn -0.342495 0.000000 -0.939520
vn -0.342494 0.000000 -0.939520
vn -0.342493 0.000000 -0.939520
vn -0.342493 0.000000 -0.939520
vn -0.342494 0.000000 -0.939520
vn -0.342493 0.000000 -0.939520
vn -0.342493 0.000000 -0.939520
vn -0.342493 0.000000 -0.939520
vn -0.342493 0.000000 -0.939520
vn -0.342493 0.000000 -0.939520
vn -0.342494 0.000000 -0.939520
vn -0.342494 0.000000 -0.939520
vn -0.342493 0.000000 -0.939520
vn -0.342494 0.000000 -0.939520
vn -0.342494 0.000000 -0.939520
vn -0.342494 0.000000 -0.939520
vn -0.342494 0.000000 -0.939520
vn -0.342494 0.000000 -0.939520
vn -0.342494 0.000000 -0.939520
vn -0.342494 0.000000 -0.939520
vn -0.342494 0.000000 -0.939520
vn -0.342494 0.000000 -0.939520
vn -0.342495 0.000000 -0.939520
vn -0.342495 0.000000 -0.939520
vn -0.342494 0.000000 -0.939520
vn -0.342495 0.000000 -0.939520
vn -0.342493 0.000000 -0.939520
vn -0.342493 0.000000 -0.939520
vn -0.342495 0.000000 -0.939520
vn -0.342493 0.000000 -0.939520
vn -0.342492 0.000000 -0.939521
vn -0.342492 0.000000 -0.939521
vn -0.342493 0.000000 -0.939520
vn -0.342492 0.000000 -0.939521
vn -0.342495 0.000000 -0.939520
vn -0.342495 0.000000 -0.939520
vn -0.342492 0.000000 -0.939521
vn -0.342495 0.000000 -0.939520
vn -0.342495 0.000000 -0.939520
vn -0.342496 0.000000 -0.939519
vn -0.342495 0.000000 -0.939520
s off
g Level2CurvyGate:pPlane1
usemtl Level2CurvyGate:initialShadingGroup
f 1/1/1 2/2/2 9/3/3 8/4/4
f 2/2/5 3/5/6 10/6/7 9/3/8
f 3/5/9 4/7/10 11/8/11 10/6/12
f 4/7/13 5/9/14 12/10/15 11/8/16
f 5/9/17 6/11/18 13/12/19 12/10/20
f 6/11/21 7/13/22 14/14/23 13/12/24
f 8/4/25 9/3/26 16/15/27 15/16/28
f 9/3/29 10/6/30 17/17/31 16/15/32
f 10/6/33 11/8/34 18/18/35 17/17/36
f 11/8/37 12/10/38 19/19/39 18/18/40
f 12/10/41 13/12/42 20/20/43 19/19/44
f 13/12/45 14/14/46 21/21/47 20/20/48
f 15/16/49 16/15/50 24/22/51 23/23/52
f 16/15/53 17/17/54 25/24/55 24/22/56
f 17/17/57 18/18/58 26/25/59 25/24/60
f 18/18/61 19/19/62 27/26/63 26/25/64
f 19/19/65 20/20/66 28/27/67 27/26/68
f 20/20/69 21/21/70 29/28/71 28/27/72
f 22/29/73 23/23/74 34/30/75 33/31/76
f 23/23/77 24/22/78 35/32/79 34/30/80
f 24/22/81 25/24/82 36/33/83 35/32/84
f 25/24/85 26/25/86 37/34/87 36/33/88
f 26/25/89 27/26/90 38/35/91 37/34/92
f 27/26/93 28/27/94 39/36/95 38/35/96
f 28/27/97 29/28/98 40/37/99 39/36/100
f 29/28/101 30/38/102 41/39/103 40/37/104
f 30/38/105 31/40/106 42/41/107 41/39/108
f 31/40/109 32/42/110 43/43/111 42/41/112
f 33/31/113 34/30/114 45/44/115 44/45/116
f 34/30/117 35/32/118 46/46/119 45/44/120
f 35/32/121 36/33/122 47/47/123 46/46/124
f 36/33/125 37/34/126 48/48/127 47/47/128
f 37/34/129 38/35/130 49/49/131 48/48/132
f 38/35/133 39/36/134 50/50/135 49/49/136
f 39/36/137 40/37/138 51/51/139 50/50/140
f 40/37/141 41/39/142 52/52/143 51/51/144
f 41/39/145 42/41/146 53/53/147 52/52/148
f 42/41/149 43/43/150 54/54/151 53/53/152
f 44/45/153 45/44/154 56/55/155 55/56/156
f 45/44/157 46/46/158 57/57/159 56/55/160
f 46/46/161 47/47/162 58/58/163 57/57/164
f 47/47/165 48/48/166 59/59/167 58/58/168
f 48/48/169 49/49/170 60/60/171 59/59/172
f 49/49/173 50/50/174 61/61/175 60/60/176
f 50/50/177 51/51/178 62/62/179 61/61/180
f 51/51/181 52/52/182 63/63/183 62/62/184
f 52/52/185 53/53/186 64/64/187 63/63/188
f 53/53/189 54/54/190 65/65/191 64/64/192
f 55/56/193 56/55/194 67/66/195 66/67/196
f 56/55/197 57/57/198 68/68/199 67/66/200
f 57/57/201 58/58/202 69/69/203 68/68/204
f 58/58/205 59/59/206 70/70/207 69/69/208
f 59/59/209 60/60/210 71/71/211 70/70/212
f 60/60/213 61/61/214 72/72/215 71/71/216
f 61/61/217 62/62/218 73/73/219 72/72/220
f 62/62/221 63/63/222 74/74/223 73/73/224
f 63/63/225 64/64/226 75/75/227 74/74/228
f 64/64/229 65/65/230 76/76/231 75/75/232
f 66/67/233 67/66/234 78/77/235 77/78/236
f 67/66/237 68/68/238 79/79/239 78/77/240
f 68/68/241 69/69/242 80/80/243 79/79/244
f 69/69/245 70/70/246 81/81/247 80/80/248
f 70/70/249 71/71/250 82/82/251 81/81/252
f 71/71/253 72/72/254 83/83/255 82/82/256
f 72/72/257 73/73/258 84/84/259 83/83/260
f 73/73/261 74/74/262 85/85/263 84/84/264
f 74/74/265 75/75/266 86/86/267 85/85/268
f 75/75/269 76/76/270 87/87/271 86/86/272
f 77/78/273 78/77/274 89/88/275 88/89/276
f 78/77/277 79/79/278 90/90/279 89/88/280
f 79/79/281 80/80/282 91/91/283 90/90/284
f 80/80/285 81/81/286 92/92/287 91/91/288
f 81/81/289 82/82/290 93/93/291 92/92/292
f 82/82/293 83/83/294 94/94/295 93/93/296
f 83/83/297 84/84/298 95/95/299 94/94/300
f 84/84/301 85/85/302 96/96/303 95/95/304
f 85/85/305 86/86/306 97/97/307 96/96/308
f 86/86/309 87/87/310 98/98/311 97/97/312
f 88/89/313 89/88/314 100/99/315 99/100/316
f 89/88/317 90/90/318 101/101/319 100/99/320
f 90/90/321 91/91/322 102/102/323 101/101/324
f 91/91/325 92/92/326 103/103/327 102/102/328
f 92/92/329 93/93/330 104/104/331 103/103/332
f 93/93/333 94/94/334 105/105/335 104/104/336
f 94/94/337 95/95/338 106/106/339 105/105/340
f 95/95/341 96/96/342 107/107/343 106/106/344
f 96/96/345 97/97/346 108/108/347 107/107/348
f 97/97/349 98/98/350 109/109/351 108/108/352
